<svg width="143" height="40" viewBox="0 0 143 40" fill="none" xmlns="http://www.w3.org/2000/svg">
<g id="Logo" clip-path="url(#clip0_0_1)">
<path id="Vector" d="M18.5794 20.5933C13.7106 20.5933 9.76355 22.2029 9.76355 24.1879C9.76355 26.1729 13.7106 27.7825 18.5794 27.7825C23.4482 27.7825 27.3952 26.1729 27.3952 24.1879C27.3952 22.2029 23.4482 20.5933 18.5794 20.5933ZM18.7112 27.7611C15.6321 27.7611 13.135 26.361 13.135 24.6331C13.135 22.9052 15.6312 21.5052 18.7112 21.5052C21.7912 21.5052 24.2874 22.9052 24.2874 24.6331C24.2874 26.361 21.7912 27.7611 18.7112 27.7611Z" fill="#005C17"/>
<path id="Vector_2" d="M20.7628 2.32127C20.7628 1.03954 19.7268 0 18.4495 0C17.1722 0 16.1362 1.03954 16.1362 2.32127C16.1362 3.19966 16.6226 3.96442 17.3411 4.35844C17.3467 3.7213 17.8628 3.20619 18.4996 3.20619C19.1364 3.20619 19.621 3.69149 19.6553 4.30255C20.32 3.89456 20.7628 3.15961 20.7628 2.32127Z" fill="#005C17"/>
<path id="Vector_3" d="M8.52344 31.2115C8.52344 33.189 9.88336 34.7977 11.5561 34.7977C13.2289 34.7977 14.5888 33.189 14.5888 31.2115C14.5888 29.2339 13.2289 27.6252 11.5561 27.6252C9.88336 27.6252 8.52344 29.2339 8.52344 31.2115ZM8.89475 31.2115C8.89475 29.4398 10.0885 27.9978 11.5561 27.9978C13.0237 27.9978 14.2175 29.4398 14.2175 31.2115C14.2175 32.9832 13.0237 34.4251 11.5561 34.4251C10.0885 34.4251 8.89475 32.9832 8.89475 31.2115Z" fill="#005C17"/>
<path id="Vector_4" d="M8.70911 31.2115C8.70911 31.2115 11.3705 29.3644 14.2788 31.2115C14.2788 31.2115 14.4022 28.0603 11.5561 27.8116C11.5561 27.8116 9.04978 27.6877 8.70911 31.2115Z" fill="#005C17"/>
<g id="Group">
<path id="Vector_5" d="M22.7576 31.3045C22.7576 33.282 24.1175 34.8907 25.7902 34.8907C27.463 34.8907 28.8229 33.282 28.8229 31.3045C28.8229 29.3269 27.463 27.7183 25.7902 27.7183C24.1175 27.7183 22.7576 29.3269 22.7576 31.3045ZM23.1289 31.3045C23.1289 29.5328 24.3226 28.0909 25.7902 28.0909C27.2578 28.0909 28.4516 29.5328 28.4516 31.3045C28.4516 33.0762 27.2578 34.5181 25.7902 34.5181C24.3226 34.5181 23.1289 33.0762 23.1289 31.3045Z" fill="#005C17"/>
<path id="Vector_6" d="M22.9432 31.3045C22.9432 31.3045 25.6046 29.4574 28.5129 31.3045C28.5129 31.3045 28.6364 28.1533 25.7903 27.9046C25.7903 27.9046 23.2839 27.7807 22.9432 31.3045Z" fill="#005C17"/>
</g>
<path id="Vector_7" d="M8.61631 30.0471C8.61631 30.0471 7.2239 30.0164 7.03824 31.6306C7.03824 31.6306 6.94541 33.2766 8.98762 33.1834L8.70914 30.0164L8.61631 30.0471Z" fill="#005C17"/>
<path id="Vector_8" d="M28.306 33.3948C28.306 33.3948 29.6483 33.7674 30.2229 32.2482C30.2229 32.2482 30.7148 30.6758 28.7116 30.2632L28.2085 33.4023L28.306 33.3948Z" fill="#005C17"/>
<path id="Vector_9" d="M22.8802 30.0395C22.8802 30.0395 21.4247 30.0199 21.2446 31.6715C21.2446 31.6715 21.162 33.3537 23.2951 33.241L22.9767 30.0078L22.8802 30.0404V30.0395Z" fill="#005C17"/>
<path id="Vector_10" d="M16.7545 31.584C16.7545 32.3646 16.1799 32.997 15.4707 32.997C14.7615 32.997 14.1869 32.3646 14.1869 31.584C14.1869 30.8034 14.7615 30.1709 15.4707 30.1709C16.1799 30.1709 16.7545 30.8034 16.7545 31.584Z" fill="#005C17"/>
<path id="Vector_11" d="M10.5972 31.5998C10.5972 31.7348 10.5007 31.8438 10.381 31.8438C10.2612 31.8438 10.1647 31.7348 10.1647 31.5998C10.1647 31.4647 10.2612 31.3557 10.381 31.3557C10.5007 31.3557 10.5972 31.4647 10.5972 31.5998Z" fill="#005C17"/>
<g id="Group_2">
<g id="Group_3">
<path id="Vector_12" d="M10.38 31.9212C10.4994 31.9212 10.5963 31.8119 10.5963 31.6772C10.5963 31.5424 10.4994 31.4331 10.38 31.4331C10.2605 31.4331 10.1637 31.5424 10.1637 31.6772C10.1637 31.8119 10.2605 31.9212 10.38 31.9212Z" fill="#005C17"/>
<path id="Vector_13" d="M10.1173 31.6771C10.1173 31.8373 10.2352 31.9677 10.38 31.9677C10.5248 31.9677 10.6427 31.8373 10.6427 31.6771C10.6427 31.6007 10.6158 31.528 10.5675 31.4731C10.5174 31.4172 10.4506 31.3855 10.38 31.3855C10.2352 31.3855 10.1173 31.5159 10.1173 31.6761V31.6771ZM10.2101 31.6771C10.2101 31.5681 10.2863 31.4796 10.38 31.4796C10.4246 31.4796 10.4663 31.4991 10.4988 31.5355C10.5322 31.5727 10.5508 31.624 10.5508 31.6771C10.5508 31.786 10.4747 31.8745 10.3809 31.8745C10.2872 31.8745 10.2111 31.786 10.2111 31.6771H10.2101Z" fill="#005C17"/>
</g>
<g id="Group_4">
<path id="Vector_14" d="M12.7323 31.9212C12.8517 31.9212 12.9486 31.8119 12.9486 31.6772C12.9486 31.5424 12.8517 31.4331 12.7323 31.4331C12.6128 31.4331 12.516 31.5424 12.516 31.6772C12.516 31.8119 12.6128 31.9212 12.7323 31.9212Z" fill="#005C17"/>
<path id="Vector_15" d="M12.4686 31.6771C12.4686 31.8373 12.5865 31.9677 12.7313 31.9677C12.8761 31.9677 12.994 31.8373 12.994 31.6771C12.994 31.6007 12.9671 31.528 12.9188 31.4731C12.8687 31.4172 12.8019 31.3855 12.7313 31.3855C12.5865 31.3855 12.4686 31.5159 12.4686 31.6761V31.6771ZM12.5615 31.6771C12.5615 31.5681 12.6376 31.4796 12.7313 31.4796C12.7759 31.4796 12.8177 31.4991 12.8501 31.5355C12.8836 31.5727 12.9021 31.624 12.9021 31.6771C12.9021 31.786 12.826 31.8745 12.7323 31.8745C12.6385 31.8745 12.5624 31.786 12.5624 31.6771H12.5615Z" fill="#005C17"/>
</g>
</g>
<g id="Group_5">
<g id="Group_6">
<path id="Vector_16" d="M24.4897 31.7041C24.6092 31.7041 24.706 31.5811 24.706 31.4293C24.706 31.2776 24.6092 31.1545 24.4897 31.1545C24.3703 31.1545 24.2734 31.2776 24.2734 31.4293C24.2734 31.5811 24.3703 31.7041 24.4897 31.7041Z" fill="#005C17"/>
<path id="Vector_17" d="M24.2271 31.4293C24.2271 31.5131 24.253 31.5923 24.3004 31.6528C24.3505 31.7162 24.4173 31.7506 24.4898 31.7506C24.6346 31.7506 24.7525 31.6063 24.7525 31.4293C24.7525 31.2523 24.6346 31.1079 24.4898 31.1079C24.3449 31.1079 24.2271 31.2523 24.2271 31.4293ZM24.3737 31.5941C24.3394 31.5504 24.3199 31.4917 24.3199 31.4283C24.3199 31.3026 24.396 31.2001 24.4898 31.2001C24.5835 31.2001 24.6596 31.3026 24.6596 31.4283C24.6596 31.4917 24.6411 31.5504 24.6058 31.5941C24.5742 31.6351 24.5325 31.6575 24.4888 31.6575C24.4452 31.6575 24.4044 31.6351 24.3719 31.5941H24.3737Z" fill="#005C17"/>
</g>
<g id="Group_7">
<path id="Vector_18" d="M27.0583 31.4293C27.0583 31.5812 26.9618 31.7041 26.842 31.7041C26.7223 31.7041 26.6257 31.5812 26.6257 31.4293C26.6257 31.2775 26.7223 31.1545 26.842 31.1545C26.9618 31.1545 27.0583 31.2775 27.0583 31.4293Z" fill="#005C17"/>
<path id="Vector_19" d="M26.5784 31.4293C26.5784 31.5131 26.6044 31.5923 26.6517 31.6528C26.7018 31.7162 26.7687 31.7506 26.8411 31.7506C26.9859 31.7506 27.1038 31.6063 27.1038 31.4293C27.1038 31.2523 26.9859 31.1079 26.8411 31.1079C26.6963 31.1079 26.5784 31.2523 26.5784 31.4293ZM26.725 31.5941C26.6907 31.5504 26.6712 31.4917 26.6712 31.4283C26.6712 31.3026 26.7473 31.2001 26.8411 31.2001C26.9348 31.2001 27.0109 31.3026 27.0109 31.4283C27.0109 31.4917 26.9924 31.5504 26.9571 31.5941C26.9255 31.6351 26.8838 31.6575 26.8401 31.6575C26.7965 31.6575 26.7557 31.6351 26.7232 31.5941H26.725Z" fill="#005C17"/>
</g>
</g>
<path id="Vector_20" d="M28.0172 29.6744L28.1416 27.6875L30.2144 28.5883L28.9149 30.482" fill="#005C17"/>
<path id="Vector_21" d="M10.5703 33.0146C10.5879 33.2978 10.9833 33.5242 11.4688 33.5242C11.9543 33.5242 12.3331 33.3071 12.3665 33.0333C12.1669 33.1739 11.8457 33.2662 11.4809 33.2662C11.1161 33.2662 10.7661 33.1665 10.5693 33.0146H10.5703Z" fill="#005C17"/>
<path id="Vector_22" d="M24.9976 32.7615C25.0115 33.1331 25.329 33.4303 25.7188 33.4303C26.1087 33.4303 26.4123 33.1452 26.4392 32.7857C26.2795 32.9701 26.0214 33.0912 25.729 33.0912C25.4366 33.0912 25.1563 32.9599 24.9985 32.7615H24.9976Z" fill="#005C17"/>
<path id="Vector_23" d="M14.7141 26.5697C13.7394 26.0397 13.202 25.3504 13.202 24.6294C13.202 23.085 15.5988 21.8284 18.5461 21.8284C21.4933 21.8284 23.8901 23.085 23.8901 24.6294C23.8901 26.1738 21.4933 27.4304 18.5461 27.4304C17.0942 27.4304 15.7334 27.1249 14.7141 26.5697ZM18.4217 20.5933C13.5529 20.5933 9.60583 22.2029 9.60583 24.1879C9.60583 26.1729 13.5529 27.7825 18.4217 27.7825C23.2905 27.7825 27.2375 26.1729 27.2375 24.1879C27.2375 22.2029 23.2905 20.5933 18.4217 20.5933Z" fill="#005C17"/>
<path id="Vector_24" d="M18.651 3.87971C18.651 4.01012 18.5461 4.11538 18.4161 4.11538C18.2862 4.11538 18.1813 4.01012 18.1813 3.87971C18.1813 3.7493 18.2862 3.64404 18.4161 3.64404C18.5461 3.64404 18.651 3.7493 18.651 3.87971Z" fill="#005C17"/>
<path id="Vector_25" d="M18.4569 5.30103L17.2195 12.5666C17.2195 12.5666 18.2712 13.9331 19.7565 12.5666L18.4569 5.30103ZM18.0076 8.47833C18.4225 8.70934 18.921 8.46343 18.921 8.46343L19.0742 9.41355C18.4439 9.99573 17.8405 9.43404 17.8405 9.43404L18.0076 8.47833ZM17.6901 11.8652L17.9083 10.6198C18.4494 10.9216 19.1002 10.6003 19.1002 10.6003L19.2997 11.8391C18.4782 12.5983 17.691 11.8662 17.691 11.8662L17.6901 11.8652Z" fill="#005C17"/>
<path id="Vector_26" d="M20.8732 10.5687L19.5931 11.842L19.9199 12.1727L21.2 10.8993C21.3773 10.7233 21.9705 10.2426 22.3473 10.3404C22.5107 10.3824 22.6351 10.5482 22.7186 10.8313C23.1345 12.2481 23.3295 12.6738 23.3554 12.7269C23.4046 12.8462 23.697 13.4293 24.72 13.2942L24.772 13.2877C24.772 13.2877 26.3993 12.2295 26.4262 12.2118C26.4559 12.1978 26.7901 12.0432 27.075 12.2025C27.348 12.3543 27.5234 12.766 27.581 13.392C27.6264 14.4017 28.0386 22.91 28.9037 24.324C28.9929 24.7422 29.8627 28.361 33.599 29.7993L33.7651 29.3642C30.0678 27.9409 29.3586 24.2373 29.3521 24.2001L29.3428 24.1498L29.3131 24.1069C28.628 23.1335 28.1648 16.0216 28.0442 13.3631V13.3529C27.9699 12.549 27.7183 12.0246 27.295 11.7917C26.7799 11.5085 26.2303 11.7889 26.2071 11.801L26.1969 11.8066C26.1969 11.8066 24.707 12.7754 24.6133 12.8359C23.9375 12.9086 23.7899 12.5648 23.7843 12.5499L23.7806 12.5406L23.7741 12.5248C23.7741 12.5248 23.5847 12.1326 23.1642 10.7C23.0315 10.2482 22.7957 9.9753 22.4634 9.88961C21.7644 9.7089 20.9633 10.4811 20.8742 10.5696L20.8732 10.5687Z" fill="#005C17"/>
<path id="Vector_27" d="M14.5108 10.0767C14.1757 10.1643 13.938 10.4363 13.8034 10.8843C13.3746 12.316 13.1824 12.7045 13.1806 12.7091L13.1759 12.7175L13.1694 12.7333C13.1629 12.7482 13.0107 13.0948 12.3136 13.0212C12.2217 12.9625 10.6937 11.9909 10.6937 11.9909L10.6835 11.9863C10.6594 11.9742 10.0941 11.6929 9.56865 11.9835C9.1435 12.2182 8.89008 12.7417 8.81582 13.5381V13.5493C8.69143 16.2069 8.21801 23.3188 7.51809 24.2913L7.48745 24.3341L7.47817 24.3863C7.47167 24.4235 6.74669 28.1271 2.96582 29.5514L3.1292 29.9873C6.94441 28.55 7.83463 24.934 7.92653 24.513C8.81117 23.098 9.23168 14.5898 9.27903 13.5801C9.33751 12.9588 9.51481 12.5489 9.79051 12.3943C10.0876 12.2275 10.4384 12.3868 10.4681 12.4008C10.4941 12.4176 12.1576 13.4757 12.1576 13.4757L12.2087 13.4823C13.2474 13.6173 13.5463 13.0379 13.5964 12.9168C13.6234 12.8628 13.8229 12.4371 14.2481 11.0203C14.3326 10.7381 14.4607 10.5732 14.6278 10.5294C15.0167 10.4279 15.6275 10.9123 15.8113 11.0893L17.1192 12.3617L17.4423 12.0273L16.1334 10.7539C16.0424 10.6654 15.2219 9.8923 14.5108 10.0777V10.0767Z" fill="#005C17"/>
<g id="Group_8">
<path id="Vector_28" d="M16.4063 25.3765C16.6468 25.4538 16.916 25.5171 17.2028 25.5665V25.0961C16.8473 25.0318 16.527 24.9424 16.2643 24.8306C15.8912 24.6732 15.6591 24.4757 15.6591 24.3155C15.6591 23.9485 16.8064 23.4157 18.6045 23.4157C20.4026 23.4157 21.5499 23.9485 21.5499 24.3155C21.5499 24.4748 21.3179 24.6723 20.9447 24.8306C20.682 24.9415 20.3627 25.0309 20.0071 25.0952V25.5656C20.294 25.5162 20.5622 25.4529 20.8027 25.3765V35.3415H21.2668V25.1948C21.8795 24.8977 22.0141 24.5568 22.0141 24.3155C22.0141 23.4194 20.2986 22.95 18.6045 22.95C16.9104 22.95 15.1949 23.4194 15.1949 24.3155C15.1949 24.5568 15.3295 24.8977 15.9422 25.1948V35.3415H16.4063V25.3765Z" fill="#005C17"/>
<path id="Vector_29" d="M15.9421 37.6069H17.6409L15.9421 37.5659V37.6069Z" fill="#005C17"/>
<path id="Vector_30" d="M16.4064 37.1411H17.6475C17.2047 37.13 16.7814 37.1197 16.4064 37.1113V37.1411Z" fill="#005C17"/>
<path id="Vector_31" d="M22.4634 35.3416H21.265V35.8073H21.9992V37.2474C21.9213 37.2455 21.653 37.239 21.265 37.2297V37.6079H17.641L22.4634 37.7252V35.3425V35.3416Z" fill="#005C17"/>
<path id="Vector_32" d="M20.8008 35.3416H16.4054V35.8073H20.8008V35.3416Z" fill="#005C17"/>
<path id="Vector_33" d="M14.9759 37.0759V35.8063H15.9422V35.3406H14.5117V37.5305L15.9422 37.565V37.0992C15.427 37.0871 15.065 37.0778 14.9759 37.0759Z" fill="#005C17"/>
<path id="Vector_34" d="M21.2649 37.2286C20.4026 37.2082 18.9443 37.1728 17.6465 37.1411H16.4054V37.1113C16.2402 37.1075 16.0852 37.1038 15.9413 37.1001V37.5658L17.641 37.6068H21.2649V37.2286Z" fill="#005C17"/>
<path id="Vector_35" d="M20.8008 35.8073H21.2649V35.3416H20.8008V35.8073Z" fill="#005C17"/>
<path id="Vector_36" d="M16.4063 35.8073V35.3416H15.9421V35.8073H16.4063Z" fill="#005C17"/>
</g>
<g id="Group_9">
<path id="Vector_37" d="M35.6458 28.2333C35.0368 27.9314 34.2645 28.1988 33.7289 28.8322C31.709 33.4868 25.5341 36.8737 18.2295 36.8737C11.3129 36.8737 5.40996 33.8362 3.08741 29.5625C2.95096 29.3119 2.8275 29.0576 2.71703 28.7996C2.32623 28.2677 1.74605 27.978 1.17702 28.0991C0.388915 28.2668 -0.099358 29.1647 0.0176048 30.1614C1.69686 35.7699 9.18433 39.9998 18.1682 39.9998C27.152 39.9998 34.7574 35.7038 36.3568 30.0292C36.4924 29.2532 36.2315 28.5239 35.6467 28.2333H35.6458ZM1.90293 31.378C1.50749 31.378 1.1863 31.0557 1.1863 30.6588C1.1863 30.262 1.50749 29.9397 1.90293 29.9397C2.29838 29.9397 2.61956 30.262 2.61956 30.6588C2.61956 31.0557 2.29838 31.378 1.90293 31.378ZM8.40922 36.9045C8.15116 36.9045 7.9423 36.6949 7.9423 36.4359C7.9423 36.177 8.15116 35.9665 8.40922 35.9665C8.66728 35.9665 8.87707 36.177 8.87707 36.4359C8.87707 36.6949 8.66728 36.9045 8.40922 36.9045ZM18.3854 39.25C17.99 39.25 17.6688 38.9277 17.6688 38.5309C17.6688 38.134 17.99 37.8118 18.3854 37.8118C18.7808 37.8118 19.102 38.134 19.102 38.5309C19.102 38.9277 18.7808 39.25 18.3854 39.25ZM27.8705 36.8728C27.6125 36.8728 27.4036 36.6632 27.4036 36.4043C27.4036 36.1453 27.6125 35.9357 27.8705 35.9357C28.1286 35.9357 28.3384 36.1453 28.3384 36.4043C28.3384 36.6632 28.1295 36.8728 27.8705 36.8728ZM34.5894 31.106C34.1939 31.106 33.8728 30.7837 33.8728 30.3869C33.8728 29.99 34.193 29.6677 34.5894 29.6677C34.9858 29.6677 35.306 29.99 35.306 30.3869C35.306 30.7837 34.9848 31.106 34.5894 31.106Z" fill="#005C17"/>
</g>
<path id="Vector_38" d="M16.2903 28.1533C16.2903 28.1533 17.9612 30.8853 20.9939 31.4442V34.7352H16.2903V28.1523V28.1533Z" fill="#005C17"/>
<path id="Vector_39" d="M18.1859 3.80226L16.2542 17.4309L16.7136 17.4961C16.7136 17.4961 18.0884 7.79463 18.4291 5.39045C18.8125 7.78904 20.3664 17.4998 20.3664 17.4998L20.825 17.4262L18.6445 3.79761L18.1859 3.80133V3.80226Z" fill="#005C17"/>
<path id="Vector_40" d="M20.4685 17.4691C20.5391 17.4998 27.5299 20.5635 26.8922 23.9131L27.348 24.0007C28.0553 20.2859 20.9549 17.1719 20.6523 17.0415L20.4685 17.4691Z" fill="#005C17"/>
<path id="Vector_41" d="M9.77847 24.1908L10.2352 24.1051C9.59931 20.6874 16.5614 17.566 16.6319 17.5353L16.4444 17.1086C16.1427 17.2418 9.07484 20.4117 9.77847 24.1898V24.1908Z" fill="#005C17"/>
<path id="Vector_42" d="M16.0768 17.3583L16.3803 17.7104C16.4592 17.6424 18.3325 16.0645 20.2874 17.7123L20.5863 17.3555C18.3241 15.4488 16.0991 17.3387 16.0768 17.3574V17.3583Z" fill="#005C17"/>
<path id="Vector_43" d="M18.4792 16.4324C17.0682 16.4324 15.9246 17.58 15.9246 18.9958C15.9246 20.4117 17.0682 21.5593 18.4792 21.5593C19.8902 21.5593 21.0338 20.4117 21.0338 18.9958C21.0338 17.58 19.8902 16.4324 18.4792 16.4324ZM18.8301 18.8766C18.6314 19.7969 17.9965 20.4396 17.4117 20.313C16.8268 20.1863 16.5131 19.3368 16.7117 18.4164C16.9104 17.4961 17.5453 16.8534 18.1301 16.9801C18.715 17.1068 19.0287 17.9563 18.8301 18.8766Z" fill="#005C17"/>
<g id="Group_10">
<path id="Vector_44" d="M83.9802 29.9465V26.037H82.9758V27.4221H81.6827V28.2363H82.9758V29.9465H83.9802ZM84.2141 33.7013V32.8872H79.9784V32.3907H83.9802V30.3377H78.9258V31.1444H82.9749V31.6492H78.9731V33.7022H84.2132L84.2141 33.7013ZM82.2202 29.124C81.3365 28.8389 80.476 27.9922 80.476 26.8027V26.2811H79.4317V26.8511C79.4317 28.0239 78.7169 28.9116 77.615 29.3187L78.1943 30.076C78.909 29.8319 79.7371 29.1389 79.9701 28.349C80.2912 29.0653 81.0794 29.6521 81.666 29.8803L82.2211 29.123L82.2202 29.124ZM76.7963 26.0361H75.7919V33.7572H76.7963V26.0361ZM75.221 31.2496C74.0718 30.4923 73.461 29.3438 73.461 27.8124V26.6881H72.425V27.8693C72.425 29.4006 71.766 30.6227 70.5369 31.4285L71.1477 32.1699C71.9349 31.7387 72.7147 30.7606 72.9644 29.8813C73.2215 30.6796 74.017 31.6166 74.6436 32.0069L75.2219 31.2496H75.221ZM68.128 31.1351C66.9779 30.5324 66.2474 29.4649 66.2474 27.8367V27.6327H67.7252V26.826H63.6751V27.6327H65.2021V27.8441C65.2021 29.4649 64.5755 30.6544 63.2899 31.3465L63.8923 32.1038C64.7844 31.6641 65.5474 30.6293 65.7322 29.8477C65.9577 30.5967 66.8897 31.5747 67.5646 31.925L68.1271 31.1351H68.128ZM69.6616 26.0361H68.6572V33.7572H69.6616V26.0361ZM62.1499 29.1072V26.1423H61.153V26.9406H58.0275V26.159H57.0305V29.1072H59.0718V29.8077H56.1468V30.6218H63.0253V29.8077H60.0678V29.1072H62.1481H62.1499ZM56.959 31.2086V32.0153H61.1465V33.7665H62.1425V31.2086H56.959ZM61.153 28.3005H58.0275V27.7221H61.153V28.3005ZM54.7915 28.9032V28.1049H50.6282V27.03H54.7349V26.2159H49.6321V28.9041H51.6419V29.6531H48.7169V30.4597H55.5954V29.6531H52.6463V28.9041H54.7915V28.9032ZM54.8064 32.3246C54.8064 31.4452 53.8419 30.8826 52.1552 30.8826C50.4685 30.8826 49.5115 31.4443 49.5115 32.3246C49.5115 33.2048 50.4759 33.7665 52.1626 33.7665C53.8493 33.7665 54.8064 33.2123 54.8064 32.3246ZM53.7871 32.333C53.7871 32.7316 53.1438 32.9598 52.1552 32.9598C51.1666 32.9598 50.5316 32.7316 50.5316 32.333C50.5316 31.9343 51.1666 31.6893 52.1552 31.6893C53.1438 31.6893 53.7871 31.9333 53.7871 32.333ZM47.1397 26.0361H46.127V33.7572H47.1397V29.8394H48.2722V29.0001H47.1397V26.0352V26.0361ZM41.2415 29.327C41.2415 30.9478 41.9804 32.0805 43.2178 32.0805C44.4551 32.0805 45.195 30.9404 45.195 29.3354C45.195 27.7305 44.4635 26.5661 43.2178 26.5661C41.972 26.5661 41.2415 27.7062 41.2415 29.327ZM44.2379 29.327C44.2379 30.5408 43.8044 31.2655 43.2168 31.2655C42.6292 31.2655 42.2208 30.5408 42.2208 29.327C42.2208 28.1133 42.6469 27.3802 43.2168 27.3802C43.7868 27.3802 44.2379 28.1133 44.2379 29.327Z" fill="#005C17"/>
<path id="Vector_45" d="M84.4359 14.2714H83.4093V19.8753H84.4359V14.2714ZM84.6105 21.7895V20.9912H80.2058V19.3136H79.1717V21.7895H84.6114H84.6105ZM78.2026 16.7557C78.2026 17.8633 79.0389 18.6532 80.3218 18.6532C81.6047 18.6532 82.4494 17.8633 82.4494 16.7557C82.4494 15.6482 81.6131 14.8499 80.3218 14.8499C79.0306 14.8499 78.2026 15.6566 78.2026 16.7557ZM79.2534 16.7557C79.2534 16.1614 79.659 15.7134 80.3209 15.7134C80.9828 15.7134 81.3968 16.1614 81.3968 16.7557C81.3968 17.35 81.0004 17.8148 80.3209 17.8148C79.6414 17.8148 79.2534 17.3668 79.2534 16.7557ZM77.1963 21.8957V18.8413H76.1696V19.5902H73.0738V18.8488H72.0305V21.8947H77.1963V21.8957ZM76.1706 21.089H73.0748V20.3801H76.1706V21.089ZM77.1889 18.4417V14.2714H76.1622V15.9416H75.0446V16.7967H76.1622V18.4417H77.1889ZM74.6547 18.0999V14.6133H73.628V15.6314H71.9887V14.6291H70.962V18.0989H74.6547V18.0999ZM73.629 17.2932H71.9896V16.4139H73.629V17.2932ZM68.3378 19.3704C67.1533 18.7677 66.4005 17.7002 66.4005 16.072V15.868H67.9238V15.0613H63.7512V15.868H65.3237V16.0795C65.3237 17.7002 64.6776 18.8898 63.3529 19.5819L63.974 20.3392C64.8929 19.8995 65.6792 18.8646 65.8695 18.0831C66.1016 18.832 67.0614 19.8101 67.7576 20.1603L68.3378 19.3704ZM69.9196 14.2714H68.8855V21.9926H69.9196V14.2714ZM62.1805 17.3426V14.3776H61.1529V15.1759H57.9318V14.3944H56.9051V17.3426H59.0086V18.043H55.9945V18.8572H63.0819V18.043H60.0353V17.3426H62.1796H62.1805ZM56.8309 19.444V20.2507H61.1446V22.0019H62.1722V19.444H56.8309ZM61.1529 16.5359H57.9318V15.9574H61.1529V16.5359ZM53.0602 18.0831C53.0602 17.3016 52.2573 16.7632 51.1721 16.7632C50.0869 16.7632 49.2923 17.3006 49.2923 18.0831C49.2923 18.7351 49.8307 19.2149 50.6337 19.362V19.9973C49.9542 20.0131 49.2682 20.0215 48.5971 20.0215C48.6388 20.2982 48.6797 20.5758 48.7298 20.844C50.1956 20.844 52.4058 20.722 53.7471 20.5748L53.6645 19.8008C53.0853 19.866 52.3984 19.9144 51.6613 19.9554V19.3685C52.4893 19.2381 53.0602 18.7491 53.0602 18.0812M55.1377 14.2714H54.111V21.9926H55.1377V14.2714ZM53.4324 15.786H48.8533V16.5517H53.4324V15.786ZM50.022 15.4442H52.3074V14.6785H50.022V15.4442ZM52.0252 18.0831C52.0252 18.3765 51.6697 18.6373 51.173 18.6373C50.6764 18.6373 50.3199 18.3765 50.3199 18.0831C50.3199 17.7897 50.6764 17.5372 51.173 17.5372C51.6697 17.5372 52.0252 17.7897 52.0252 18.0831ZM47.3198 14.2714H46.3005V21.9926H47.3198V18.0747H48.4532V17.2438H47.3198V14.2705V14.2714ZM45.9116 19.3946C44.7271 18.6532 44.0077 17.4562 44.0077 15.9248V14.9226H42.9476V15.9817C42.9476 17.5214 42.2764 18.7594 41.001 19.5651C41.2163 19.8091 41.4233 20.0541 41.6303 20.3066C42.4417 19.8343 43.2363 18.8646 43.4925 17.9937C43.758 18.8329 44.6602 19.7449 45.3063 20.1519C45.5124 19.8995 45.7027 19.6471 45.9106 19.3946" fill="#005C17"/>
<path id="Vector_46" d="M137.275 18.3337C137.275 16.2108 135.222 14.6496 132.359 14.6496C129.496 14.6496 127.381 16.2108 127.381 18.2927C127.381 20.3746 129.496 21.9562 132.359 21.9562C135.222 21.9562 137.275 20.4575 137.275 18.3346M136.363 27.2834H140.096V29.2815H142.689V14.0237H140.096V25.4307H136.363V27.2834ZM143 33.2366V31.1761H131.155V27.4082H128.562V33.2366H143ZM134.371 28.3248V24.6408C135.885 24.5365 137.358 24.3912 138.685 24.1825L138.54 22.2674C135.782 22.6213 130.845 22.871 126.012 22.871L126.364 24.9109C127.837 24.9109 129.766 24.8904 131.799 24.8066V28.3248H134.372H134.371ZM134.723 18.3337C134.723 19.1869 133.811 20.0197 132.359 20.0197C130.907 20.0197 129.973 19.1869 129.973 18.3337C129.973 17.4804 130.865 16.5853 132.359 16.5853C133.853 16.5853 134.723 17.4599 134.723 18.3337ZM122.721 14.0246H120.149V28.3248H122.721V21.8305H125.542V19.6862H122.721V14.0246ZM123.219 33.258V31.218H112.806V26.8466H110.213V33.258H123.219ZM118.801 23.3497C116.499 22.6008 114.237 20.1445 114.237 17.0846V15.1275H111.582V17.2094C111.582 20.2069 109.736 22.8505 106.895 23.8909L108.43 25.9309C110.276 25.2025 112.33 23.183 112.931 21.185C113.781 22.9958 115.835 24.7861 117.328 25.3692L118.802 23.3497H118.801ZM107.646 20.3522V18.2294H104.845V14.0246H102.252V24.9314H104.845V20.3522H107.646ZM104.845 25.9933H92.1294V33.5076H104.845V25.9933ZM102.251 31.4882H94.7008V27.9914H102.251V31.4882ZM100.385 21.0397C97.9989 21.5809 95.5102 21.7886 92.7922 21.7886V15.0446H90.22V23.9748H92.1907C94.5968 23.9748 98.2477 23.7456 100.778 23.1215L100.384 21.0397H100.385Z" fill="#005C17"/>
</g>
</g>
<defs>
<clipPath id="clip0_0_1">
<rect width="143" height="40" fill="white"/>
</clipPath>
</defs>
</svg>
