<svg width="16" height="16" viewBox="0 0 16 16" fill="none" xmlns="http://www.w3.org/2000/svg">
<path d="M3.55566 0.333008H12.4443C14.2239 0.333008 15.667 1.77608 15.667 3.55566V12.4443C15.667 14.2239 14.2239 15.667 12.4443 15.667H3.55566C1.77608 15.667 0.333008 14.2239 0.333008 12.4443V3.55566C0.333008 1.77608 1.77608 0.333008 3.55566 0.333008Z" fill="#456805"/>
<path d="M3.55566 0.333008H12.4443C14.2239 0.333008 15.667 1.77608 15.667 3.55566V12.4443C15.667 14.2239 14.2239 15.667 12.4443 15.667H3.55566C1.77608 15.667 0.333008 14.2239 0.333008 12.4443V3.55566C0.333008 1.77608 1.77608 0.333008 3.55566 0.333008Z" stroke="#456805" stroke-width="0.666667"/>
<path d="M11.5558 5.55554L6.66692 10.4444L4.4447 8.22221" stroke="#F0F4FA" stroke-width="1.77778" stroke-linecap="round" stroke-linejoin="round"/>
</svg>
