<svg width="20" height="20" viewBox="0 0 20 20" fill="none" xmlns="http://www.w3.org/2000/svg">
<path d="M3.33301 0.416992H16.667C18.2776 0.417168 19.5828 1.72244 19.583 3.33301V16.667C19.5828 18.2776 18.2776 19.5828 16.667 19.583H3.33301C1.72244 19.5828 0.417168 18.2776 0.416992 16.667V3.33301C0.417168 1.72244 1.72244 0.417168 3.33301 0.416992Z" fill="#FBFBF8"/>
<path d="M3.33301 0.416992H16.667C18.2776 0.417168 19.5828 1.72244 19.583 3.33301V16.667C19.5828 18.2776 18.2776 19.5828 16.667 19.583H3.33301C1.72244 19.5828 0.417168 18.2776 0.416992 16.667V3.33301C0.417168 1.72244 1.72244 0.417168 3.33301 0.416992Z" stroke="#456805" stroke-width="0.833333"/>
<path d="M14.4444 6.94446L8.33332 13.0556L5.55554 10.2778" stroke="#E3E3DE" stroke-width="2.08333" stroke-linecap="round" stroke-linejoin="round"/>
</svg>
